<svg width="84" height="49" viewBox="0 0 84 49" fill="none" xmlns="http://www.w3.org/2000/svg">
<g id="Camada 1">
<g id="Group">
<path id="Vector" d="M5.19149 44.3591H2.31132V41.4644H0.664062V48.8683H2.31132V45.9533H5.19149V48.8683H6.84886V41.4644H5.19149V44.3591Z" fill="#77BC1F"/>
<path id="Vector_2" d="M14.3532 47.3551C13.1539 47.3551 12.2141 46.4228 12.2141 45.1697C12.2141 43.9166 13.164 42.9641 14.3532 42.9641C15.5423 42.9641 16.4821 43.8761 16.4922 45.1697C16.5023 46.4228 15.5625 47.3551 14.3532 47.3551ZM14.3532 41.3327C12.1737 41.3327 10.4961 43.035 10.4961 45.1798C10.4961 47.3247 12.1366 48.9865 14.3431 48.9865C16.5495 48.9865 18.2102 47.2943 18.2102 45.1697C18.2102 43.0452 16.5327 41.3327 14.3532 41.3327Z" fill="#77BC1F"/>
<path id="Vector_3" d="M24.6795 44.8218H23.5105V42.9877H24.7906C25.4003 42.9877 25.7102 43.4099 25.7102 43.8896C25.7102 44.3692 25.4307 44.8218 24.6795 44.8218ZM27.408 43.8592C27.408 42.5858 26.5895 41.4644 24.8007 41.4644H21.8633V48.8683H23.5139V46.2843H24.3224L25.7709 48.8683H27.691L25.9831 46.0513C26.9937 45.6291 27.4114 44.7374 27.4114 43.8558" fill="#77BC1F"/>
<path id="Vector_4" d="M30.4531 43.0587H32.545V48.8683H34.2024V43.0587H36.2808V41.4644H30.4531V43.0587Z" fill="#77BC1F"/>
<path id="Vector_5" d="M41.3566 41.4644H39.6992V48.8683H41.3566V41.4644Z" fill="#77BC1F"/>
<path id="Vector_6" d="M45.4141 48.8683H47.0613V46.0445H50.0695V44.4908H47.0613V43.0283H50.4805V41.4644H45.4141V48.8683Z" fill="#77BC1F"/>
<path id="Vector_7" d="M56.867 44.8218H55.698V42.9877H56.9781C57.5878 42.9877 57.8977 43.4099 57.8977 43.8896C57.8977 44.3692 57.6182 44.8218 56.867 44.8218ZM59.5955 43.8592C59.5955 42.5858 58.777 41.4644 56.9882 41.4644H54.0508V48.8683H55.698V46.2843H56.5065L57.955 48.8683H59.8751L58.1672 46.0513C59.1778 45.6291 59.5955 44.7374 59.5955 43.8558" fill="#77BC1F"/>
<path id="Vector_8" d="M67.5721 46.0141C67.5721 46.9565 67.023 47.3956 66.2819 47.3956C65.5408 47.3956 64.9816 46.9633 64.9816 46.0141V41.4644H63.3242V46.0851C63.3242 48.1488 64.7424 49 66.2819 49C67.8213 49 69.2294 48.1488 69.2294 46.0851V41.4644H67.5721V46.0141Z" fill="#77BC1F"/>
<path id="Vector_9" d="M72.5664 43.0587H74.655V48.8683H76.3123V43.0587H78.3908V41.4644H72.5664V43.0587Z" fill="#77BC1F"/>
<path id="Vector_10" d="M83.466 41.4644H81.8086V48.8683H83.466V41.4644Z" fill="#77BC1F"/>
<path id="Vector_11" d="M74.015 23.7248V25.3495C73.7085 27.4538 71.1989 29.0379 68.1604 29.0379C65.7956 29.0379 64.3841 27.9773 64.3841 26.2007C64.3841 24.9171 64.876 23.7282 68.4332 23.7282H74.015V23.7248ZM83.9828 32.6554L83.4708 29.4196C83.3495 28.7981 82.76 28.3691 82.1267 28.4502L81.9145 28.4772C81.1532 28.5414 80.9915 28.4468 80.8365 27.1836C80.8096 26.9674 80.8096 26.7377 80.8096 26.4979V24.7077C80.8163 24.674 80.8197 24.6402 80.8197 24.6064V17.9558C80.7725 12.2509 76.8649 8.84277 70.3736 8.84277C65.9944 8.84277 63.2994 9.83919 60.1228 11.5584C59.5434 11.8726 59.3177 12.6055 59.6209 13.1898L61.093 16.0136C61.2446 16.3041 61.5006 16.5169 61.8173 16.6114C62.1339 16.706 62.4607 16.6689 62.7504 16.5101C64.9534 15.2874 67.079 14.6659 69.0665 14.6659C71.3235 14.6659 74.0184 15.3549 74.0184 18.6347V18.7529H67.4833C61.4231 18.8002 57.8086 21.7185 57.8086 26.5553C57.8086 31.3922 61.4939 34.5874 66.7658 34.5874C70.3264 34.5874 73.1325 33.4492 74.8841 31.2976C75.477 32.3041 76.3866 33.0844 77.5858 33.6147C79.6474 34.5233 81.1296 34.476 82.9958 34.0842C83.016 34.0808 83.0328 34.074 83.0531 34.0707L83.1541 34.0369C83.7403 33.841 84.094 33.2499 83.9862 32.6554" fill="#42873E"/>
<path id="Vector_12" d="M47.8183 21.4888C47.8183 21.4888 47.8183 21.4989 47.8183 21.5023C47.7576 27.3018 42.9978 27.7544 41.5425 27.7544C40.4477 27.7544 38.5916 27.5213 37.2745 27.1397V21.5091C37.2745 18.6617 39.043 15.7772 42.4251 15.7772C44.0084 15.7772 45.4164 16.3378 46.3933 17.3545C47.3905 18.3949 47.8856 19.8236 47.8216 21.4854M44.288 8.89006C41.1888 8.89006 38.8611 9.80204 37.2307 11.6665V1.24637C37.2307 0.854564 37.0521 0.49653 36.7389 0.266848C36.4256 0.033788 36.0315 -0.0337656 35.6609 0.0810755L31.2379 1.44228C30.7225 1.60103 30.3789 2.07053 30.3789 2.60758V31.3043C30.3789 31.8009 30.672 32.2433 31.1267 32.4325C34.4044 33.7869 37.6922 34.4963 40.8924 34.5435C41.044 34.5435 41.1922 34.5469 41.3404 34.5469C45.4164 34.5469 48.7884 33.3681 51.1094 31.122C53.4506 28.8589 54.6734 25.6096 54.7374 21.4685C54.8082 17.341 53.6999 13.9937 51.5372 11.7847C49.7081 9.91688 47.1344 8.89006 44.288 8.89006Z" fill="#42873E"/>
<path id="Vector_13" d="M13.2993 28.5786C9.49952 28.5786 6.9461 25.8359 6.9461 21.7556C6.9461 17.6754 9.49952 14.9327 13.2993 14.9327C17.0991 14.9327 19.5616 17.7396 19.5616 21.7556C19.5616 25.7717 16.9846 28.5786 13.2993 28.5786ZM13.2993 8.87317C5.34264 8.87317 0 14.014 0 21.6644C0 29.3149 5.34264 34.5469 13.2993 34.5469C17.1396 34.5469 20.4374 33.3174 22.8325 30.9868C25.2344 28.6495 26.5077 25.4272 26.5077 21.6644C26.5077 17.9017 25.2377 14.7233 22.8325 12.4028C20.4374 10.0925 17.1429 8.87317 13.2993 8.87317Z" fill="#FF8300"/>
<path id="Vector_14" d="M9.99515 7.8531C8.96098 8.03212 7.94366 8.05577 6.94318 7.69435C6.07407 7.38023 5.3734 6.83305 4.84789 6.09333C4.30891 5.33336 3.83394 4.52609 3.34886 3.72896C2.84356 2.89129 2.35511 2.04012 1.63759 1.3612C1.34452 1.08423 1.00092 0.847797 0.664062 0.567449C0.970607 0.483007 1.27715 0.388432 1.57022 0.317501C3.20064 -0.0743096 4.83105 -0.162129 6.44125 0.398565C8.45906 1.10112 9.80314 2.51637 10.6082 4.47205C10.9788 5.37051 11.1708 6.3095 11.0933 7.28903C11.0866 7.38023 11.0697 7.47143 11.0529 7.60316C11.0529 7.60316 10.3489 7.79568 9.99515 7.85648" fill="#77BC1F"/>
<path id="Vector_15" d="M13.2754 7.53899C13.7807 7.53899 14.2793 7.55926 14.7677 7.59979C15.0541 5.32323 15.9737 3.52969 17.4357 2.40492C17.6883 2.20901 17.7692 1.86787 17.6243 1.59428L16.9978 0.344534C16.9169 0.18916 16.7822 0.0776971 16.6171 0.0270319C16.4554 -0.0236333 16.2803 -0.0067449 16.132 0.0743194C13.8515 1.31393 12.2514 4.08025 11.7461 7.59979C12.248 7.55926 12.7567 7.53899 13.2754 7.53899Z" fill="#77BC1F"/>
</g>
</g>
</svg>
